<svg width="117" height="167" viewBox="0 0 117 167" fill="none" xmlns="http://www.w3.org/2000/svg">
<path d="M7.904 113.728H3.248L2.448 116H0.544L4.528 104.864H6.64L10.624 116H8.704L7.904 113.728ZM7.392 112.24L5.584 107.072L3.76 112.24H7.392ZM18.1323 116L15.5723 111.552H14.1803V116H12.3563V104.88H16.1963C17.0496 104.88 17.7696 105.029 18.3563 105.328C18.9536 105.627 19.3963 106.027 19.6843 106.528C19.9829 107.029 20.1323 107.589 20.1323 108.208C20.1323 108.933 19.9189 109.595 19.4923 110.192C19.0763 110.779 18.4309 111.179 17.5563 111.392L20.3083 116H18.1323ZM14.1803 110.096H16.1963C16.8789 110.096 17.3909 109.925 17.7323 109.584C18.0843 109.243 18.2603 108.784 18.2603 108.208C18.2603 107.632 18.0896 107.184 17.7483 106.864C17.4069 106.533 16.8896 106.368 16.1963 106.368H14.1803V110.096ZM28.3856 100.896L24.0336 118.8H22.2416L26.5776 100.896H28.3856ZM44.4246 104.88L40.2486 116H38.1366L33.9446 104.88H35.8966L39.1926 114.128L42.5046 104.88H44.4246ZM51.726 116L49.166 111.552H47.774V116H45.95V104.88H49.79C50.6433 104.88 51.3633 105.029 51.95 105.328C52.5473 105.627 52.99 106.027 53.278 106.528C53.5767 107.029 53.726 107.589 53.726 108.208C53.726 108.933 53.5127 109.595 53.086 110.192C52.67 110.779 52.0247 111.179 51.15 111.392L53.902 116H51.726ZM47.774 110.096H49.79C50.4727 110.096 50.9847 109.925 51.326 109.584C51.678 109.243 51.854 108.784 51.854 108.208C51.854 107.632 51.6833 107.184 51.342 106.864C51.0007 106.533 50.4833 106.368 49.79 106.368H47.774V110.096ZM59.6076 111.552C59.6076 110.667 59.789 109.883 60.1516 109.2C60.525 108.517 61.0263 107.989 61.6556 107.616C62.2956 107.232 63.005 107.04 63.7836 107.04C64.3596 107.04 64.925 107.168 65.4796 107.424C66.045 107.669 66.493 108 66.8236 108.416V104.16H68.6636V116H66.8236V114.672C66.525 115.099 66.109 115.451 65.5756 115.728C65.053 116.005 64.4503 116.144 63.7676 116.144C62.9996 116.144 62.2956 115.952 61.6556 115.568C61.0263 115.173 60.525 114.629 60.1516 113.936C59.789 113.232 59.6076 112.437 59.6076 111.552ZM66.8236 111.584C66.8236 110.976 66.6956 110.448 66.4396 110C66.1943 109.552 65.869 109.211 65.4636 108.976C65.0583 108.741 64.621 108.624 64.1516 108.624C63.6823 108.624 63.245 108.741 62.8396 108.976C62.4343 109.2 62.1036 109.536 61.8476 109.984C61.6023 110.421 61.4796 110.944 61.4796 111.552C61.4796 112.16 61.6023 112.693 61.8476 113.152C62.1036 113.611 62.4343 113.963 62.8396 114.208C63.2556 114.443 63.693 114.56 64.1516 114.56C64.621 114.56 65.0583 114.443 65.4636 114.208C65.869 113.973 66.1943 113.632 66.4396 113.184C66.6956 112.725 66.8236 112.192 66.8236 111.584ZM79.1394 111.376C79.1394 111.707 79.118 112.005 79.0754 112.272H72.3394C72.3927 112.976 72.654 113.541 73.1234 113.968C73.5927 114.395 74.1687 114.608 74.8514 114.608C75.8327 114.608 76.526 114.197 76.9314 113.376H78.8994C78.6327 114.187 78.1474 114.853 77.4434 115.376C76.75 115.888 75.886 116.144 74.8514 116.144C74.0087 116.144 73.2514 115.957 72.5794 115.584C71.918 115.2 71.3954 114.667 71.0114 113.984C70.638 113.291 70.4514 112.491 70.4514 111.584C70.4514 110.677 70.6327 109.883 70.9954 109.2C71.3687 108.507 71.886 107.973 72.5474 107.6C73.2194 107.227 73.9874 107.04 74.8514 107.04C75.6834 107.04 76.4247 107.221 77.0754 107.584C77.726 107.947 78.2327 108.459 78.5954 109.12C78.958 109.771 79.1394 110.523 79.1394 111.376ZM77.2354 110.8C77.2247 110.128 76.9847 109.589 76.5154 109.184C76.046 108.779 75.4647 108.576 74.7714 108.576C74.142 108.576 73.6034 108.779 73.1554 109.184C72.7074 109.579 72.4407 110.117 72.3554 110.8H77.2354ZM84.1344 116.144C83.441 116.144 82.817 116.021 82.2624 115.776C81.7184 115.52 81.2864 115.179 80.9664 114.752C80.6464 114.315 80.4757 113.829 80.4544 113.296H82.3424C82.3744 113.669 82.5504 113.984 82.8704 114.24C83.201 114.485 83.6117 114.608 84.1024 114.608C84.6144 114.608 85.009 114.512 85.2864 114.32C85.5744 114.117 85.7184 113.861 85.7184 113.552C85.7184 113.221 85.5584 112.976 85.2384 112.816C84.929 112.656 84.433 112.48 83.7504 112.288C83.089 112.107 82.5504 111.931 82.1344 111.76C81.7184 111.589 81.3557 111.328 81.0464 110.976C80.7477 110.624 80.5984 110.16 80.5984 109.584C80.5984 109.115 80.737 108.688 81.0144 108.304C81.2917 107.909 81.6864 107.6 82.1984 107.376C82.721 107.152 83.3184 107.04 83.9904 107.04C84.993 107.04 85.7984 107.296 86.4064 107.808C87.025 108.309 87.3557 108.997 87.3984 109.872H85.5744C85.5424 109.477 85.3824 109.163 85.0944 108.928C84.8064 108.693 84.417 108.576 83.9264 108.576C83.4464 108.576 83.0784 108.667 82.8224 108.848C82.5664 109.029 82.4384 109.269 82.4384 109.568C82.4384 109.803 82.5237 110 82.6944 110.16C82.865 110.32 83.073 110.448 83.3184 110.544C83.5637 110.629 83.9264 110.741 84.4064 110.88C85.0464 111.051 85.569 111.227 85.9744 111.408C86.3904 111.579 86.7477 111.835 87.0464 112.176C87.345 112.517 87.4997 112.971 87.5104 113.536C87.5104 114.037 87.3717 114.485 87.0944 114.88C86.817 115.275 86.4224 115.584 85.9104 115.808C85.409 116.032 84.817 116.144 84.1344 116.144ZM90.4093 106.016C90.0786 106.016 89.8013 105.904 89.5773 105.68C89.3533 105.456 89.2413 105.179 89.2413 104.848C89.2413 104.517 89.3533 104.24 89.5773 104.016C89.8013 103.792 90.0786 103.68 90.4093 103.68C90.7293 103.68 91.0013 103.792 91.2253 104.016C91.4493 104.24 91.5613 104.517 91.5613 104.848C91.5613 105.179 91.4493 105.456 91.2253 105.68C91.0013 105.904 90.7293 106.016 90.4093 106.016ZM91.3053 107.184V116H89.4813V107.184H91.3053ZM97.252 107.04C97.9347 107.04 98.5373 107.179 99.06 107.456C99.5933 107.723 100.009 108.059 100.308 108.464V107.184H102.148V116.144C102.148 116.955 101.977 117.675 101.636 118.304C101.295 118.944 100.799 119.445 100.148 119.808C99.508 120.171 98.74 120.352 97.844 120.352C96.6493 120.352 95.6573 120.069 94.868 119.504C94.0787 118.949 93.6307 118.192 93.524 117.232H95.332C95.4707 117.691 95.764 118.059 96.212 118.336C96.6707 118.624 97.2147 118.768 97.844 118.768C98.58 118.768 99.172 118.544 99.62 118.096C100.079 117.648 100.308 116.997 100.308 116.144V114.672C99.9987 115.088 99.5773 115.44 99.044 115.728C98.5213 116.005 97.924 116.144 97.252 116.144C96.484 116.144 95.78 115.952 95.14 115.568C94.5107 115.173 94.0093 114.629 93.636 113.936C93.2733 113.232 93.092 112.437 93.092 111.552C93.092 110.667 93.2733 109.883 93.636 109.2C94.0093 108.517 94.5107 107.989 95.14 107.616C95.78 107.232 96.484 107.04 97.252 107.04ZM100.308 111.584C100.308 110.976 100.18 110.448 99.924 110C99.6787 109.552 99.3533 109.211 98.948 108.976C98.5427 108.741 98.1053 108.624 97.636 108.624C97.1667 108.624 96.7293 108.741 96.324 108.976C95.9187 109.2 95.588 109.536 95.332 109.984C95.0867 110.421 94.964 110.944 94.964 111.552C94.964 112.16 95.0867 112.693 95.332 113.152C95.588 113.611 95.9187 113.963 96.324 114.208C96.74 114.443 97.1773 114.56 97.636 114.56C98.1053 114.56 98.5427 114.443 98.948 114.208C99.3533 113.973 99.6787 113.632 99.924 113.184C100.18 112.725 100.308 112.192 100.308 111.584ZM108.992 107.04C109.685 107.04 110.304 107.184 110.848 107.472C111.402 107.76 111.834 108.187 112.144 108.752C112.453 109.317 112.608 110 112.608 110.8V116H110.8V111.072C110.8 110.283 110.602 109.68 110.208 109.264C109.813 108.837 109.274 108.624 108.592 108.624C107.909 108.624 107.365 108.837 106.96 109.264C106.565 109.68 106.368 110.283 106.368 111.072V116H104.544V107.184H106.368V108.192C106.666 107.829 107.045 107.547 107.504 107.344C107.973 107.141 108.469 107.04 108.992 107.04Z" fill="white"/>
<g clip-path="url(#clip0_106_16)">
<path d="M48.2622 159.974C48.3481 159.988 48.4351 159.994 48.5221 159.993H63.3372L63.0141 160.144C62.6984 160.293 62.4111 160.496 62.1652 160.745L58.0107 164.899C57.4635 165.421 57.3716 166.262 57.7928 166.89C58.2831 167.559 59.2232 167.705 59.8928 167.215C59.9469 167.175 59.9983 167.132 60.0466 167.085L67.5593 159.573C68.1464 158.986 68.147 158.035 67.5605 157.448C67.5601 157.447 67.5597 157.447 67.5593 157.446L60.0466 149.934C59.459 149.348 58.5077 149.349 57.9217 149.937C57.8756 149.983 57.8325 150.032 57.7928 150.084C57.3716 150.712 57.4635 151.553 58.0107 152.075L62.1577 156.237C62.3781 156.458 62.6316 156.643 62.909 156.785L63.3597 156.988H48.6048C47.8372 156.96 47.1638 157.496 47.0196 158.25C46.8868 159.069 47.4431 159.841 48.2622 159.974Z" fill="#DC7000"/>
</g>
<circle cx="57.5" cy="32.5" r="32.5" fill="white"/>
<g clip-path="url(#clip1_106_16)">
<path d="M70.7203 18.1779H45.3813C43.2528 18.1803 41.5278 19.9053 41.5254 22.0338V44.0677C41.5278 46.1963 43.2528 47.9213 45.3813 47.9237H70.7203C72.8489 47.9213 74.5738 46.1963 74.5762 44.0677V22.0338C74.5738 19.9053 72.8489 18.1803 70.7203 18.1779ZM73.4745 44.0677C73.4727 45.5881 72.2407 46.8202 70.7203 46.822H45.3813C43.861 46.8202 42.6289 45.5881 42.6271 44.0677V22.0338C42.6289 20.5135 43.861 19.2814 45.3813 19.2796H70.7203C72.2407 19.2814 73.4727 20.5135 73.4745 22.0338V44.0677Z" fill="#DC7000"/>
<path d="M70.7203 22.5847H45.3813C44.4686 22.5847 43.7288 23.3246 43.7288 24.2372V44.0677C43.7288 44.9804 44.4686 45.7203 45.3813 45.7203H70.7203C71.633 45.7203 72.3728 44.9804 72.3728 44.0677V24.2372C72.3728 23.3246 71.633 22.5847 70.7203 22.5847ZM58.0508 33.5267L52.0515 30.2966L58.0508 27.0664L64.0501 30.2966L58.0508 33.5267ZM64.661 31.2187V37.6779L58.6016 40.9422V34.483L64.661 31.2187ZM57.4999 34.483V40.9422L51.4406 37.6779V31.2187L57.4999 34.483ZM44.8305 24.2372C44.8305 23.933 45.0771 23.6864 45.3813 23.6864H57.4999V26.1101L50.6287 29.8118C50.6215 29.8157 50.6133 29.8173 50.6061 29.8217C50.4395 29.9218 50.338 30.1022 50.3389 30.2966V34.9138L44.8305 37.668V24.2372ZM71.2711 44.0677C71.2711 44.372 71.0245 44.6186 70.7203 44.6186H45.3813C45.0771 44.6186 44.8305 44.372 44.8305 44.0677V38.8997L50.3389 36.1454V38.0084C50.339 38.211 50.4503 38.3971 50.6287 38.4932L57.7897 42.3491C57.9527 42.4368 58.1489 42.4368 58.3119 42.3491L65.4729 38.4932C65.6513 38.3971 65.7626 38.211 65.7627 38.0084V36.1454L71.2711 38.8997V44.0677ZM71.2711 37.668L65.7627 34.9138V30.2966C65.7626 30.1028 65.6607 29.9233 65.4944 29.8239C65.4872 29.8195 65.479 29.8179 65.4718 29.814L58.6016 26.1101V23.6864H70.7203C71.0245 23.6864 71.2711 23.933 71.2711 24.2372V37.668Z" fill="#DC7000"/>
<path d="M44.8304 21.483C45.1346 21.483 45.3812 21.2364 45.3812 20.9322C45.3812 20.628 45.1346 20.3813 44.8304 20.3813C44.5262 20.3813 44.2795 20.628 44.2795 20.9322C44.2795 21.2364 44.5262 21.483 44.8304 21.483Z" fill="#DC7000"/>
<path d="M47.0338 21.483C47.338 21.483 47.5846 21.2364 47.5846 20.9322C47.5846 20.628 47.338 20.3813 47.0338 20.3813C46.7295 20.3813 46.4829 20.628 46.4829 20.9322C46.4829 21.2364 46.7295 21.483 47.0338 21.483Z" fill="#DC7000"/>
<path d="M49.2371 21.483C49.5413 21.483 49.788 21.2364 49.788 20.9322C49.788 20.628 49.5413 20.3813 49.2371 20.3813C48.9329 20.3813 48.6863 20.628 48.6863 20.9322C48.6863 21.2364 48.9329 21.483 49.2371 21.483Z" fill="#DC7000"/>
<path d="M63.0084 21.483H70.7202C71.0245 21.483 71.2711 21.2364 71.2711 20.9322C71.2711 20.628 71.0245 20.3813 70.7202 20.3813H63.0084C62.7041 20.3813 62.4575 20.628 62.4575 20.9322C62.4575 21.2364 62.7041 21.483 63.0084 21.483Z" fill="#DC7000"/>
</g>
<defs>
<clipPath id="clip0_106_16">
<rect width="21" height="21" fill="white" transform="matrix(-1 0 0 -1 68 167)"/>
</clipPath>
<clipPath id="clip1_106_16">
<rect width="33.0508" height="33.0508" fill="white" transform="translate(41.5254 16.5254)"/>
</clipPath>
</defs>
</svg>
