<svg width="110" height="168" viewBox="0 0 110 168" fill="none" xmlns="http://www.w3.org/2000/svg">
<path d="M0.928 107.216C0.992 106.224 1.37067 105.451 2.064 104.896C2.768 104.341 3.664 104.064 4.752 104.064C5.49867 104.064 6.144 104.197 6.688 104.464C7.232 104.731 7.64267 105.093 7.92 105.552C8.19733 106.011 8.336 106.528 8.336 107.104C8.336 107.765 8.16 108.331 7.808 108.8C7.456 109.269 7.03467 109.584 6.544 109.744V109.808C7.17333 110 7.664 110.352 8.016 110.864C8.368 111.365 8.544 112.011 8.544 112.8C8.544 113.429 8.4 113.989 8.112 114.48C7.824 114.971 7.39733 115.36 6.832 115.648C6.26667 115.925 5.58933 116.064 4.8 116.064C3.648 116.064 2.69867 115.771 1.952 115.184C1.216 114.587 0.821333 113.733 0.768 112.624H2.528C2.57067 113.189 2.78933 113.653 3.184 114.016C3.57867 114.368 4.112 114.544 4.784 114.544C5.43467 114.544 5.936 114.368 6.288 114.016C6.64 113.653 6.816 113.189 6.816 112.624C6.816 111.877 6.576 111.349 6.096 111.04C5.62667 110.72 4.90133 110.56 3.92 110.56H3.504V109.056H3.936C4.8 109.045 5.456 108.901 5.904 108.624C6.36267 108.347 6.592 107.909 6.592 107.312C6.592 106.8 6.42667 106.395 6.096 106.096C5.76533 105.787 5.296 105.632 4.688 105.632C4.09067 105.632 3.62667 105.787 3.296 106.096C2.96533 106.395 2.768 106.768 2.704 107.216H0.928ZM14.332 104.88C15.516 104.88 16.5507 105.109 17.436 105.568C18.332 106.016 19.02 106.667 19.5 107.52C19.9907 108.363 20.236 109.349 20.236 110.48C20.236 111.611 19.9907 112.592 19.5 113.424C19.02 114.256 18.332 114.896 17.436 115.344C16.5507 115.781 15.516 116 14.332 116H10.7V104.88H14.332ZM14.332 114.512C15.6333 114.512 16.6307 114.16 17.324 113.456C18.0173 112.752 18.364 111.76 18.364 110.48C18.364 109.189 18.0173 108.181 17.324 107.456C16.6307 106.731 15.6333 106.368 14.332 106.368H12.524V114.512H14.332ZM37.912 104.88V116H36.088V108.384L32.696 116H31.432L28.024 108.384V116H26.2V104.88H28.168L32.072 113.6L35.96 104.88H37.912ZM44.1334 116.144C43.3014 116.144 42.5494 115.957 41.8774 115.584C41.2054 115.2 40.6774 114.667 40.2934 113.984C39.9094 113.291 39.7174 112.491 39.7174 111.584C39.7174 110.688 39.9147 109.893 40.3094 109.2C40.704 108.507 41.2427 107.973 41.9254 107.6C42.608 107.227 43.3707 107.04 44.2134 107.04C45.056 107.04 45.8187 107.227 46.5014 107.6C47.184 107.973 47.7227 108.507 48.1174 109.2C48.512 109.893 48.7094 110.688 48.7094 111.584C48.7094 112.48 48.5067 113.275 48.1014 113.968C47.696 114.661 47.1414 115.2 46.4374 115.584C45.744 115.957 44.976 116.144 44.1334 116.144ZM44.1334 114.56C44.6027 114.56 45.04 114.448 45.4454 114.224C45.8614 114 46.1974 113.664 46.4534 113.216C46.7094 112.768 46.8374 112.224 46.8374 111.584C46.8374 110.944 46.7147 110.405 46.4694 109.968C46.224 109.52 45.8987 109.184 45.4934 108.96C45.088 108.736 44.6507 108.624 44.1814 108.624C43.712 108.624 43.2747 108.736 42.8694 108.96C42.4747 109.184 42.16 109.52 41.9254 109.968C41.6907 110.405 41.5734 110.944 41.5734 111.584C41.5734 112.533 41.8134 113.269 42.2934 113.792C42.784 114.304 43.3974 114.56 44.1334 114.56ZM49.9045 111.552C49.9045 110.667 50.0858 109.883 50.4485 109.2C50.8218 108.517 51.3232 107.989 51.9525 107.616C52.5925 107.232 53.3018 107.04 54.0805 107.04C54.6565 107.04 55.2218 107.168 55.7765 107.424C56.3418 107.669 56.7898 108 57.1205 108.416V104.16H58.9605V116H57.1205V114.672C56.8218 115.099 56.4058 115.451 55.8725 115.728C55.3498 116.005 54.7472 116.144 54.0645 116.144C53.2965 116.144 52.5925 115.952 51.9525 115.568C51.3232 115.173 50.8218 114.629 50.4485 113.936C50.0858 113.232 49.9045 112.437 49.9045 111.552ZM57.1205 111.584C57.1205 110.976 56.9925 110.448 56.7365 110C56.4912 109.552 56.1658 109.211 55.7605 108.976C55.3552 108.741 54.9178 108.624 54.4485 108.624C53.9792 108.624 53.5418 108.741 53.1365 108.976C52.7312 109.2 52.4005 109.536 52.1445 109.984C51.8992 110.421 51.7765 110.944 51.7765 111.552C51.7765 112.16 51.8992 112.693 52.1445 113.152C52.4005 113.611 52.7312 113.963 53.1365 114.208C53.5525 114.443 53.9898 114.56 54.4485 114.56C54.9178 114.56 55.3552 114.443 55.7605 114.208C56.1658 113.973 56.4912 113.632 56.7365 113.184C56.9925 112.725 57.1205 112.192 57.1205 111.584ZM69.4363 111.376C69.4363 111.707 69.4149 112.005 69.3723 112.272H62.6363C62.6896 112.976 62.9509 113.541 63.4203 113.968C63.8896 114.395 64.4656 114.608 65.1483 114.608C66.1296 114.608 66.8229 114.197 67.2283 113.376H69.1962C68.9296 114.187 68.4443 114.853 67.7403 115.376C67.0469 115.888 66.1829 116.144 65.1483 116.144C64.3056 116.144 63.5483 115.957 62.8763 115.584C62.2149 115.2 61.6923 114.667 61.3083 113.984C60.9349 113.291 60.7483 112.491 60.7483 111.584C60.7483 110.677 60.9296 109.883 61.2923 109.2C61.6656 108.507 62.1829 107.973 62.8443 107.6C63.5163 107.227 64.2843 107.04 65.1483 107.04C65.9803 107.04 66.7216 107.221 67.3723 107.584C68.0229 107.947 68.5296 108.459 68.8923 109.12C69.2549 109.771 69.4363 110.523 69.4363 111.376ZM67.5323 110.8C67.5216 110.128 67.2816 109.589 66.8123 109.184C66.3429 108.779 65.7616 108.576 65.0683 108.576C64.4389 108.576 63.9003 108.779 63.4523 109.184C63.0043 109.579 62.7376 110.117 62.6523 110.8H67.5323ZM73.0553 104.16V116H71.2313V104.16H73.0553ZM76.378 106.016C76.0473 106.016 75.77 105.904 75.546 105.68C75.322 105.456 75.21 105.179 75.21 104.848C75.21 104.517 75.322 104.24 75.546 104.016C75.77 103.792 76.0473 103.68 76.378 103.68C76.698 103.68 76.97 103.792 77.194 104.016C77.418 104.24 77.53 104.517 77.53 104.848C77.53 105.179 77.418 105.456 77.194 105.68C76.97 105.904 76.698 106.016 76.378 106.016ZM77.274 107.184V116H75.45V107.184H77.274ZM84.1168 107.04C84.8101 107.04 85.4288 107.184 85.9728 107.472C86.5274 107.76 86.9594 108.187 87.2688 108.752C87.5781 109.317 87.7328 110 87.7328 110.8V116H85.9248V111.072C85.9248 110.283 85.7274 109.68 85.3328 109.264C84.9381 108.837 84.3994 108.624 83.7168 108.624C83.0341 108.624 82.4901 108.837 82.0848 109.264C81.6901 109.68 81.4928 110.283 81.4928 111.072V116H79.6688V107.184H81.4928V108.192C81.7914 107.829 82.1701 107.547 82.6288 107.344C83.0981 107.141 83.5941 107.04 84.1168 107.04ZM93.6114 107.04C94.294 107.04 94.8967 107.179 95.4194 107.456C95.9527 107.723 96.3687 108.059 96.6674 108.464V107.184H98.5074V116.144C98.5074 116.955 98.3367 117.675 97.9954 118.304C97.654 118.944 97.158 119.445 96.5074 119.808C95.8674 120.171 95.0994 120.352 94.2034 120.352C93.0087 120.352 92.0167 120.069 91.2274 119.504C90.438 118.949 89.99 118.192 89.8834 117.232H91.6914C91.83 117.691 92.1234 118.059 92.5714 118.336C93.03 118.624 93.574 118.768 94.2034 118.768C94.9394 118.768 95.5314 118.544 95.9794 118.096C96.438 117.648 96.6674 116.997 96.6674 116.144V114.672C96.358 115.088 95.9367 115.44 95.4034 115.728C94.8807 116.005 94.2834 116.144 93.6114 116.144C92.8434 116.144 92.1394 115.952 91.4994 115.568C90.87 115.173 90.3687 114.629 89.9954 113.936C89.6327 113.232 89.4514 112.437 89.4514 111.552C89.4514 110.667 89.6327 109.883 89.9954 109.2C90.3687 108.517 90.87 107.989 91.4994 107.616C92.1394 107.232 92.8434 107.04 93.6114 107.04ZM96.6674 111.584C96.6674 110.976 96.5394 110.448 96.2834 110C96.038 109.552 95.7127 109.211 95.3074 108.976C94.902 108.741 94.4647 108.624 93.9954 108.624C93.526 108.624 93.0887 108.741 92.6834 108.976C92.278 109.2 91.9474 109.536 91.6914 109.984C91.446 110.421 91.3234 110.944 91.3234 111.552C91.3234 112.16 91.446 112.693 91.6914 113.152C91.9474 113.611 92.278 113.963 92.6834 114.208C93.0994 114.443 93.5367 114.56 93.9954 114.56C94.4647 114.56 94.902 114.443 95.3074 114.208C95.7127 113.973 96.038 113.632 96.2834 113.184C96.5394 112.725 96.6674 112.192 96.6674 111.584ZM104.103 116.144C103.41 116.144 102.786 116.021 102.231 115.776C101.687 115.52 101.255 115.179 100.935 114.752C100.615 114.315 100.444 113.829 100.423 113.296H102.311C102.343 113.669 102.519 113.984 102.839 114.24C103.17 114.485 103.58 114.608 104.071 114.608C104.583 114.608 104.978 114.512 105.255 114.32C105.543 114.117 105.687 113.861 105.687 113.552C105.687 113.221 105.527 112.976 105.207 112.816C104.898 112.656 104.402 112.48 103.719 112.288C103.058 112.107 102.519 111.931 102.103 111.76C101.687 111.589 101.324 111.328 101.015 110.976C100.716 110.624 100.567 110.16 100.567 109.584C100.567 109.115 100.706 108.688 100.983 108.304C101.26 107.909 101.655 107.6 102.167 107.376C102.69 107.152 103.287 107.04 103.959 107.04C104.962 107.04 105.767 107.296 106.375 107.808C106.994 108.309 107.324 108.997 107.367 109.872H105.543C105.511 109.477 105.351 109.163 105.063 108.928C104.775 108.693 104.386 108.576 103.895 108.576C103.415 108.576 103.047 108.667 102.791 108.848C102.535 109.029 102.407 109.269 102.407 109.568C102.407 109.803 102.492 110 102.663 110.16C102.834 110.32 103.042 110.448 103.287 110.544C103.532 110.629 103.895 110.741 104.375 110.88C105.015 111.051 105.538 111.227 105.943 111.408C106.359 111.579 106.716 111.835 107.015 112.176C107.314 112.517 107.468 112.971 107.479 113.536C107.479 114.037 107.34 114.485 107.063 114.88C106.786 115.275 106.391 115.584 105.879 115.808C105.378 116.032 104.786 116.144 104.103 116.144Z" fill="white"/>
<g clip-path="url(#clip0_106_17)">
<path d="M46.2622 160.974C46.3481 160.988 46.4351 160.994 46.5221 160.993H61.3372L61.0141 161.144C60.6984 161.293 60.4111 161.496 60.1652 161.745L56.0107 165.899C55.4635 166.421 55.3716 167.262 55.7928 167.89C56.2831 168.559 57.2232 168.705 57.8928 168.215C57.9469 168.175 57.9983 168.132 58.0466 168.085L65.5593 160.573C66.1464 159.986 66.147 159.035 65.5605 158.448C65.5601 158.447 65.5597 158.447 65.5593 158.446L58.0466 150.934C57.459 150.348 56.5077 150.349 55.9217 150.937C55.8756 150.983 55.8325 151.032 55.7928 151.084C55.3716 151.712 55.4635 152.553 56.0107 153.075L60.1577 157.237C60.3781 157.458 60.6316 157.643 60.909 157.785L61.3597 157.988H46.6048C45.8372 157.96 45.1638 158.496 45.0196 159.25C44.8868 160.069 45.4431 160.841 46.2622 160.974Z" fill="#DC7000"/>
</g>
<circle cx="55.5" cy="32.5" r="32.5" fill="white"/>
<g clip-path="url(#clip1_106_17)">
<path d="M70.3522 42.4496L69.6906 39.9806C69.6045 39.6591 69.274 39.4681 68.9527 39.5545C68.6312 39.6407 68.4405 39.971 68.5266 40.2924L68.8163 41.3734L64.5885 38.9617V28.9385C64.5885 28.7229 64.4732 28.5236 64.2863 28.4162L55.5507 23.3938V18.6211L56.3297 19.4001C56.565 19.6354 56.9465 19.6354 57.1818 19.4001C57.4171 19.1648 57.4171 18.7833 57.1818 18.5479L55.3742 16.7404C55.1387 16.5039 54.753 16.5086 54.5221 16.7404L52.7145 18.5479C52.4792 18.7832 52.4792 19.1647 52.7145 19.4001C52.9498 19.6353 53.3313 19.6353 53.5667 19.4001L54.3457 18.6211V23.3949L45.6687 28.417C45.4826 28.5247 45.368 28.7235 45.368 28.9385V38.8643L41.0807 41.3006L41.3708 40.2177C41.4569 39.8962 41.2662 39.5659 40.9447 39.4798C40.6232 39.3935 40.2929 39.5843 40.2068 39.9058L39.5453 42.3755C39.4615 42.6882 39.6488 43.0363 39.9894 43.1182L42.4405 43.775C42.7645 43.8618 43.093 43.6678 43.1785 43.349C43.2646 43.0276 43.0739 42.6972 42.7524 42.6111L41.7069 42.3309L45.9619 39.913L54.6804 45.0469C54.867 45.1568 55.0988 45.1582 55.2871 45.0496L57.4973 43.7755C57.7856 43.6093 57.8845 43.2409 57.7184 42.9526C57.5522 42.6644 57.1837 42.5654 56.8954 42.7316L54.9894 43.8304L47.1706 39.2262L54.9102 34.8282L62.799 39.3282L61.5921 40.024C61.3038 40.1902 61.2049 40.5586 61.371 40.8469C61.5373 41.1352 61.9058 41.2342 62.194 41.0679L64.0118 40.02L68.1922 42.4047L67.1452 42.6852C66.8238 42.7713 66.633 43.1017 66.7192 43.4231C66.8049 43.743 67.1342 43.9358 67.4571 43.8492L69.8719 43.2022C70.2167 43.1413 70.4447 42.7948 70.3522 42.4496ZM63.3834 38.2742L55.5506 33.8061V24.7838L63.3834 29.2871V38.2742ZM46.573 29.286L54.3456 24.7873V33.7628L46.573 38.1796V29.286Z" fill="#DC7000"/>
<path d="M59.5273 42.4724C59.8601 42.4724 60.1299 42.2026 60.1299 41.8699C60.1299 41.5371 59.8601 41.2673 59.5273 41.2673C59.1946 41.2673 58.9248 41.5371 58.9248 41.8699C58.9248 42.2026 59.1946 42.4724 59.5273 42.4724Z" fill="#DC7000"/>
</g>
<defs>
<clipPath id="clip0_106_17">
<rect width="21" height="21" fill="white" transform="matrix(-1 0 0 -1 66 168)"/>
</clipPath>
<clipPath id="clip1_106_17">
<rect width="30.8475" height="30.8475" fill="white" transform="translate(39.5254 15.4237)"/>
</clipPath>
</defs>
</svg>
